<svg width="24" height="25" viewBox="0 0 24 25" fill="none" xmlns="http://www.w3.org/2000/svg">
<g clip-path="url(#clip0_32_4)">
<mask id="mask0_32_4" style="mask-type:luminance" maskUnits="userSpaceOnUse" x="0" y="0" width="24" height="25">
<path d="M24 0.5H0V24.5H24V0.5Z" fill="white"/>
</mask>
<g mask="url(#mask0_32_4)">
<path d="M13.768 1.64665C13.5358 1.41443 13.2602 1.23023 12.9569 1.10455C12.6535 0.978871 12.3284 0.914185 12 0.914185C11.6716 0.914185 11.3465 0.978871 11.0431 1.10455C10.7398 1.23023 10.4642 1.41443 10.232 1.64665L0 11.8797V21.4997C0 22.2953 0.316071 23.0584 0.87868 23.621C1.44129 24.1836 2.20435 24.4997 3 24.4997H21C21.7956 24.4997 22.5587 24.1836 23.1213 23.621C23.6839 23.0584 24 22.2953 24 21.4997V11.8797L13.768 1.64665Z" fill="white"/>
</g>
</g>
<defs>
<clipPath id="clip0_32_4">
<rect width="24" height="25" fill="white"/>
</clipPath>
</defs>
</svg>
